<?xml version="1.0" encoding="UTF-8"?>
<svg width="148" height="200" version="1.1" viewbox="0 0 148 200" xmlns="http://www.w3.org/2000/svg" xmlns:xlink="http://www.w3.org/1999/xlink">
	<defs>
		<polygon id="base_square" points="-24,0 0,-12 24,0 0,12"/>
		<g id="base">
			<polygon points="-73,0 0,-37 73,0 0,37" fill="#46617E" stroke="none" transform="translate(0 8)"/>
			<use xlink:href="#base_square" x="-49"/>
			<use xlink:href="#base_square" x="-24.5" y="-12.25"/>
			<use xlink:href="#base_square" y="-24.5"/>
			<use xlink:href="#base_square" x="-24.5" y="12.25" />
			<use xlink:href="#base_square"/>
			<use xlink:href="#base_square" x="24.5"  y="-12.25"/>
			<use xlink:href="#base_square" y="24.5"/>
			<use xlink:href="#base_square" x="24.5"  y="12.25"/>
			<use xlink:href="#base_square" x="49"/>
		</g>
		<radialGradient id="s" cx="46%" cy="46%" fx="34%" fy="34%">
			<stop offset="10%" stop-color="#A9E5F7"/>
			<stop offset="40%" stop-color="#7EBDF3"/>
			<stop offset="80%" stop-color="#4C78AD"/>
			<stop offset="100%" stop-color="#274870"/>
		</radialGradient>
		<linearGradient id="p1" gradientTransform="rotate(-5)">
			<stop offset="30%" stop-color="#649DD8"/>
			<stop offset="60%" stop-color="#4C78AD"/>
			<stop offset="85%" stop-color="#274870"/>
		</linearGradient>
		<linearGradient id="p2" gradientTransform="rotate(10)">
			<stop offset="20%" stop-color="#4E7AAF"/>
			<stop offset="28%" stop-color="#649DD8"/>
			<stop offset="33%" stop-color="#7EBDF3"/>
			<stop offset="40%" stop-color="#7EBDF3"/>
			<stop offset="48%" stop-color="rgba(126,189,243,0)"/>
		</linearGradient>
		<linearGradient id="p3" gradientTransform="rotate(10)">
			<stop offset="30%" stop-color="rgba(126,189,243,0)"/>
			<stop offset="44%" stop-color="#7EBDF3"/>
			<stop offset="48%" stop-color="#7EBDF3"/>
			<stop offset="60%" stop-color="rgba(126,189,243,0)"/>
		</linearGradient>
		<g id="car" fill="url(#s)">
			<path fill="url(#p1)" d="M-6 0 a 6 3 0 0 0 12 0 l-3 -46 l-6 0 z"/>
			<path fill="url(#p2)" d="M-6 0 a 6 3 0 0 0 12 0 l-3 -46 l-6 0 z"/>
			<circle r="20" cy="-47"/>
			<path fill="url(#p1)" d="M-2.14 -65.714 a4.28 2.14 0 0 0 4.28 0 L0 -92 z"/>
			<path fill="url(#p3)" d="M-2.14 -65.714 a4.28 2.14 0 0 0 4.28 0 L0 -92 z"/>
			<circle r="9.5" cx="-27.5" cy="-18.5"/>
			<circle r="9.5" cx="35.5" cy="-32.5"/>
			<circle r="9" cx="-34" cy="-60"/>
			<circle r="9" cx="20" cy="-75"/>
		</g>
	</defs>
	<rect width="100%" height="100%" fill="#6B839E"/>
	<use xlink:href="#base" x="74" y="154" alt-fill="#788FA8" fill="#91BBE6"/>
	<use xlink:href="#car" x="74" y="154"/>
</svg>
