<?xml version="1.0" encoding="UTF-8"?>
<svg width="148" height="200" version="1.1" viewbox="0 0 148 200" xmlns="http://www.w3.org/2000/svg" xmlns:xlink="http://www.w3.org/1999/xlink">
	<defs>
		<polygon id="base_square" points="-24,0 0,-12 24,0 0,12"/>
		<g id="base">
			<polygon points="-73,0 0,-37 73,0 0,37" fill="#46617E" stroke="none" transform="translate(0 8)"/>
			<use xlink:href="#base_square" x="-49"/>
			<use xlink:href="#base_square" x="-24.5" y="-12.25"/>
			<use xlink:href="#base_square" y="-24.5"/>
			<use xlink:href="#base_square" x="-24.5" y="12.25" />
			<use xlink:href="#base_square"/>
			<use xlink:href="#base_square" x="24.5"  y="-12.25"/>
			<use xlink:href="#base_square" y="24.5"/>
			<use xlink:href="#base_square" x="24.5"  y="12.25"/>
			<use xlink:href="#base_square" x="49"/>
		</g>
		<radialGradient id="s" cx="46%" cy="46%" fx="34%" fy="34%">
			<stop offset="10%" stop-color="#A9E5F7"/>
			<stop offset="40%" stop-color="#7EBDF3"/>
			<stop offset="80%" stop-color="#4C78AD"/>
			<stop offset="100%" stop-color="#274870"/>
		</radialGradient>
		<linearGradient id="c">
			<stop offset="0%" stop-color="#4672A5"/>
			<stop offset="20%" stop-color="#689CD2"/>
			<stop offset="30%" stop-color="#689CD2"/>
			<stop offset="100%" stop-color="#13355B"/>
		</linearGradient>
		<linearGradient id="p2" gradientTransform="rotate(10)">
			<stop offset="20%" stop-color="#4E7AAF"/>
			<stop offset="28%" stop-color="#649DD8"/>
			<stop offset="33%" stop-color="#7EBDF3"/>
			<stop offset="40%" stop-color="#7EBDF3"/>
			<stop offset="48%" stop-color="rgba(126,189,243,0)"/>
		</linearGradient>
		<linearGradient id="p3" gradientTransform="rotate(10)">
			<stop offset="30%" stop-color="rgba(126,189,243,0)"/>
			<stop offset="44%" stop-color="#7EBDF3"/>
			<stop offset="48%" stop-color="#7EBDF3"/>
			<stop offset="60%" stop-color="rgba(126,189,243,0)"/>
		</linearGradient>
		<g id="drdonut">
			<path d="M0 -11 a69 69 0 0 0 6 -17.6 H-6 a69 69 0 0 0 6 17.6"/>
			<circle fill="url(#s)" r="12" cy="-39"/>
			<path d="M0 -69 a69 69 0 0 1 6 19.6 a12 12 0 0 1 -12 0 a69 69 0 0 1 6 -19.6"/>
			<path fill="url(#s)" d="M1 0 A1 1 0 0 0 -1 0 A1 0.5 0 0 0 1 0"/>
 			<path fill="url(#c)" d="M14.8 -2.5 A14.8 7.4 0 0 0 -14.8 -2.5 v2.5 A14.8 7.4 0 0 1 14.8 0" transform="scale(-1 1)"/>
			<path fill="url(#c)" d="M17.88 0 v-2.5 A17.88 8.94 0 0 1 -17.88 -2.5 v2.5 A17.88 8.94 0 0 0 17.88 0 z"/>
			<path fill="#4875AA" d="M14.8 -2.5 A14.8 7.4 0 0 0 -14.8 -2.5 A14.8 7.4 0 0 0 14.8 -2.5 L17.88 -2.5
				A17.88 8.94 0 0 1 -17.88 -2.5 A17.88 8.94 0 0 1 17.88 -2.5 z"/>
		</g>
	</defs>
	<rect width="100%" height="100%" fill="#6B839E"/>
	<use xlink:href="#base" x="74" y="154" alt-fill="#788FA8" fill="#91BBE6"/>
	<use xlink:href="#drdonut" x="74" y="154"/>
</svg>
